<svg xmlns="http://www.w3.org/2000/svg" viewBox="0 0 18.7 41.2">
  <path
    fill="currentColor"
    d="M12.9,21.35a9.38,9.38,0,0,1-4.69.81C5.46,22,1.82,20.24.58,18.26a4.35,4.35,0,0,1-.3-3.67A4,4,0,0,1,4,12a3.78,3.78,0,0,1,3.82,3.82,3.51,3.51,0,0,1-2.14,3.37A4.72,4.72,0,0,0,9,20.06a13,13,0,0,0,4.36-1l1.68-8.73a9.38,9.38,0,0,1-4.7.82C7.61,10.91,4,9.2,2.73,7.22a4.35,4.35,0,0,1-.3-3.67A4,4,0,0,1,6.1,1,3.78,3.78,0,0,1,9.92,4.77,3.51,3.51,0,0,1,7.78,8.14a4.71,4.71,0,0,0,3.4.87A12.4,12.4,0,0,0,15.5,8L17,.2c0-.1.2-.2.4-.2l.8.1c.3,0,.5.1.5.3L11,41c0,.1-.2.2-.4.2l-1-.1c-.2,0-.4-.1-.4-.3" />
</svg>