<svg xmlns="http://www.w3.org/2000/svg" viewBox="0 0 12.65 39.79">
  <path
    fill="currentColor"
    d="M4,.28a10.86,10.86,0,0,1,2.5,2.3s2.9,4.5,3,4.6c.5.7,1.4,1.4.7,2.3-.3.4-.9.8-1.2,1.2s-.7.8-1,1.2c-.8,1-2.1,2.1-2.4,4.3s2,6.5,2.4,7.3a9,9,0,0,0,1.4,2c.5.6.9,1.2,1.4,1.8l1,1.3c.2.3.8.8.9,1.2v.3a1.49,1.49,0,0,1-1.3,1.3h-.1a.1.1,0,0,1-.1-.1A6.23,6.23,0,0,0,6,29.48a2,2,0,0,0-1.4,1.3,4.89,4.89,0,0,0,0,4.1c.6,1.4,1.5,2.7,2.2,4a.1.1,0,0,0,.1.1c.1.5-.9.8-1.2.8s-.8-.5-1-.7a9,9,0,0,1-1-.9,18,18,0,0,1-1.9-2,4.67,4.67,0,0,1-1.3-3.4,5,5,0,0,1,.1-2.1,5.09,5.09,0,0,1,1.5-2.9,4.35,4.35,0,0,1,1.9-1,3.59,3.59,0,0,1,1.1-.2,3.4,3.4,0,0,1,1.4.2c.4.1,1.1.2,1.2-.4s-1.3-2.1-1.6-2.5a39.26,39.26,0,0,0-2.9-4.2,9.34,9.34,0,0,0-1.3-1.5,4.49,4.49,0,0,0-1.3-1.1c-.1-.1-.2-.1-.3-.2-.4-.2-.2-1-.2-1.3a2.1,2.1,0,0,1,.7-1.1,36.84,36.84,0,0,0,3.9-4c.8-1.1,2-2.8,1.3-4.2A20.85,20.85,0,0,0,3.25,2c-.2-.3-.5-.5-.7-.8s0-.8.2-1,.6-.2,1.2.1Z" />
</svg>